<?xml version="1.0" standalone="no"?><!DOCTYPE svg PUBLIC "-//W3C//DTD SVG 1.1//EN" "http://www.w3.org/Graphics/SVG/1.1/DTD/svg11.dtd"><svg t="1578038722119" class="icon" viewBox="0 0 1280 1024" version="1.1" xmlns="http://www.w3.org/2000/svg" p-id="4498" xmlns:xlink="http://www.w3.org/1999/xlink" width="20" height="16"><defs><style type="text/css"></style></defs><path d="M1185.109333 723.285333h-209.066666v-209.066666a13.141333 13.141333 0 0 0-13.056-13.056h-52.224a13.141333 13.141333 0 0 0-13.141334 13.056v209.066666H688.64a13.141333 13.141333 0 0 0-12.970667 13.056v52.224c0 7.253333 5.888 13.141333 13.056 13.141334h209.066667v209.066666c0 7.082667 5.802667 12.970667 13.056 12.970667h52.224a13.141333 13.141333 0 0 0 13.056-13.056v-209.066667h209.066667a13.141333 13.141333 0 0 0 13.056-13.056V736.426667a13.141333 13.141333 0 0 0-13.056-13.056zM369.152 78.506667c75.776 0 147.626667 29.354667 202.581333 82.346666l27.392 26.709334 27.477334-26.709334A290.645333 290.645333 0 0 1 829.098667 78.506667a291.328 291.328 0 0 1 290.645333 290.730666c0 23.466667-4.522667 47.701333-13.056 73.130667 0 0-3.925333 11.776-3.925333 18.261333 0 21.589333 17.664 39.253333 39.253333 39.253334 18.944 0 32.597333-18.944 38.485333-32 5.205333-11.776 18.346667-66.048 18.346667-98.645334A369.066667 369.066667 0 0 0 599.808 80.469333a369.066667 369.066667 0 0 0-599.04 288.768c0 259.925333 425.301333 561.749333 554.666667 647.338667a9.386667 9.386667 0 0 0 1.877333 1.28s13.056 5.973333 20.309333 5.973333a39.253333 39.253333 0 0 0 39.168-39.253333 37.802667 37.802667 0 0 0-18.346666-32.682667C435.797333 847.36 77.909333 575.573333 77.909333 369.237333A292.352 292.352 0 0 1 369.066667 78.506667z" p-id="4499" fill="#d81e06"></path></svg>