<?xml version="1.0" standalone="no"?><!DOCTYPE svg PUBLIC "-//W3C//DTD SVG 1.1//EN" "http://www.w3.org/Graphics/SVG/1.1/DTD/svg11.dtd"><svg class="icon" width="16px" height="16.00px" viewBox="0 0 1024 1024" version="1.1" xmlns="http://www.w3.org/2000/svg"><path fill="#bfbfbf" d="M941.278898 232.981793l-13.823288 4.09579-31.230392 132.089197A409.578907 409.578907 0 1 1 512.244993 102.428517a405.483118 405.483118 0 0 1 127.481435 20.478945l23.550787-102.394726A523.237053 523.237053 0 0 0 512.244993 0.03379a511.973633 511.973633 0 1 0 429.033905 232.948003z"  /><path fill="#bfbfbf" d="M256.258177 512.007424a255.986817 255.986817 0 0 0 508.389818 42.493811l91.131306-385.004172 119.801831-36.350128A67.58052 67.58052 0 0 0 937.183109 3.105632L742.121155 61.470626l-61.436836 255.986817A255.986817 255.986817 0 0 0 256.258177 512.007424z"  /></svg>