<?xml version="1.0" standalone="no"?><!DOCTYPE svg PUBLIC "-//W3C//DTD SVG 1.1//EN" "http://www.w3.org/Graphics/SVG/1.1/DTD/svg11.dtd"><svg class="icon" width="16px" height="16.00px" viewBox="0 0 1024 1024" version="1.1" xmlns="http://www.w3.org/2000/svg"><path fill="#bfbfbf" d="M731.428571 661.211429a106.496 106.496 0 0 0-71.68 28.16l-260.754285-151.771429A119.734857 119.734857 0 0 0 402.285714 512a119.734857 119.734857 0 0 0-3.291428-25.6l257.828571-150.308571A109.458286 109.458286 0 1 0 621.714286 256a119.734857 119.734857 0 0 0 3.291428 25.6l-257.828571 150.308571a109.714286 109.714286 0 1 0 0 160.182858l260.388571 152.137142a103.168 103.168 0 0 0-2.925714 23.771429A106.788571 106.788571 0 1 0 731.428571 661.211429z" /></svg>