<?xml version="1.0" standalone="no"?><!DOCTYPE svg PUBLIC "-//W3C//DTD SVG 1.1//EN" "http://www.w3.org/Graphics/SVG/1.1/DTD/svg11.dtd"><svg t="1578484366284" class="icon" viewBox="0 0 1024 1024" version="1.1" xmlns="http://www.w3.org/2000/svg" p-id="6807" xmlns:xlink="http://www.w3.org/1999/xlink" width="16" height="16"><defs><style type="text/css"></style></defs><path d="M943.60596053 656.56470613c1.7669024-4.81882347 0-6.90698027-3.37317653-9.47701973a299.73082347 299.73082347 0 0 0-96.3764704-46.7425888l-10.6014112-2.5700384c0-1.9275296 0-3.21254933 0.96376427-4.49756907a332.17756907 332.17756907 0 0 0-35.49866667-279.17050986 7.54949013 7.54949013 0 0 0-5.46133333-3.21254934 333.623216 333.623216 0 0 0-107.94164694 20.56031467c-11.88643093 4.3369408-23.45160747 9.63764693-35.33803946 14.6170976 0-2.0881568-1.44564693-4.0156864-1.9275296-5.7825888a335.06886293 335.06886293 0 0 0-95.57333334-159.50305813c-13.17145067-13.01082347-27.62792107-25.05788267-42.72690133-37.42619627a24.4153728 24.4153728 0 0 1-2.0881568 2.40941227c-17.02650987 16.0627456-34.8561568 30.519216-50.9189024 47.3850976a325.9130976 325.9130976 0 0 0-80.31372587 135.89082346c-1.60627413 5.62196053-3.05192107 11.24392107-4.6581952 17.18713707l-4.33694186-1.9275296a341.17270613 341.17270613 0 0 0-136.37270614-33.41050987 7.71011733 7.71011733 0 0 0-8.192 4.33694187 330.41066667 330.41066667 0 0 0-43.208784 245.9206272 332.33819627 332.33819627 0 0 1 7.38886294 37.42619627l-4.3369408 1.28501973a306.9590592 306.9590592 0 0 0-99.9102752 48.18823467 7.22823573 7.22823573 0 0 0-3.05192107 10.1195296 295.0726272 295.0726272 0 0 0 194.03796053 184.5609408c2.89129387 0.96376427-92.84266667 36.7836864-108.744784 44.33317653h1.44564694-2.57003947 1.12439253c-1.9275296 0-2.57003947 0-2.73066666 0.80313813h-1.44564694 3.05192107a212.51011733 212.51011733 0 0 1 76.77992213 20.5603136A203.0330976 203.0330976 0 0 0 438.1113728 897.50588267c2.57003947-1.44564693 4.81882347-3.21254933 7.22823467-4.97945174a8.192 8.192 0 0 0-2.5700384 0c4.81882347-3.69443093 80.31372587-42.24501973 132.51764693 2.40941227a112.439216 112.439216 0 0 0 16.06274453 6.2644704 205.28188267 205.28188267 0 0 0 194.1985888 7.22823573 218.29270613 218.29270613 0 0 1 32.12549014-12.52894186c11.24392107-3.05192107 22.6484704-4.97945067 34.21364693-7.06760747h13.81396053l-0.3212544-2.40941227v-0.80313706h-1.6062752c-66.49976427-54.29207893-124.16501973-40.15686293-123.84376426-40.31749014A294.912 294.912 0 0 0 943.60596053 656.56470613z m-531.83749013 142.95843094a52.68580373 52.68580373 0 0 1-28.5916864 16.0627456 25.05788267 25.05788267 0 0 1-30.19796053-13.17145174 202.551216 202.551216 0 0 1-9.79827414-25.37913706c-7.71011733-22.4878432-16.0627456-44.9756864-22.80909866-67.4635296 0-1.44564693-0.80313707-3.05192107-1.28501974-4.6581952 16.0627456-1.9275296 16.0627456-1.9275296 21.04219627 12.04705813l19.59654933 56.21960853c4.81882347 13.65333333 13.17145067 16.0627456 23.29098027 4.81882347 17.34776427-18.632784 34.05301973-37.74745067 51.0795296-56.54086293a51.2401568 51.2401568 0 0 0 6.2644704-7.06760854A22.16658773 22.16658773 0 0 1 463.81176427 704.7529408h32.12549013c-1.9275296 2.73066667-2.89129387 4.1763136-4.1763136 5.46133333z m93.9670592 17.66901973H479.87450987c2.40941227-8.5132544 4.49756907-16.0627456 6.74635306-24.09411733 7.8707456-27.46729387 16.0627456-54.93458773 23.77286294-82.40188267 1.12439253-4.1763136 2.73066667-5.943216 7.06760746-5.78258773H544.12549013l-8.67388266 30.51921493c-7.22823573 25.05788267-14.4564704 50.11576427-21.52407787 75.17364693-1.9275296 4.97945067-3.37317653 6.58572587-8.192 6.58572587z m302.14023467-126.41380373a112.439216 112.439216 0 0 1-40.96 29.073568 357.55670613 357.55670613 0 0 1-100.3921568 28.1098048c-22.00596053 3.21254933-44.17254933 4.81882347-66.17850987 6.90698026-4.3369408 0-5.78258773 2.57003947-6.746352 6.2644704-5.943216 22.00596053-12.2076864 44.01192107-17.829648 66.17850987-1.28501973 4.97945067-3.37317653 6.2644704-8.03137173 6.1038432h-32.12549014c1.28501973-4.97945067 2.40941227-9.15576427 3.53380374-13.33207893 9.9589024-35.17741227 19.91780373-70.35482347 29.55545066-105.53223467 1.12439253-4.1763136 2.73066667-5.943216 7.38886294-5.943216 34.8561568-1.12439253 69.5516864-1.9275296 104.247216-4.1763136a356.4323136 356.4323136 0 0 0 97.50086186-17.18713707 86.41756907 86.41756907 0 0 0 21.04219627-10.92266666 16.0627456 16.0627456 0 0 0 1.7669024-26.1822752 94.1276864 94.1276864 0 0 0-38.8718432-20.881568 436.74603947 436.74603947 0 0 0-90.112-18.79341227 1109.61443093 1109.61443093 0 0 0-168.81945067-7.54949013c-47.3850976 1.60627413-94.60956907 4.81882347-141.83403946 8.99513706a907.86635307 907.86635307 0 0 0-152.27482347 27.94917654 3.21254933 3.21254933 0 0 1-1.12439253-1.44564694c13.49270613-3.69443093 26.98541227-7.54949013 40.6387456-10.92266666A1044.07843093 1044.07843093 0 0 1 415.6235296 598.57819627c31.0010976-2.57003947 62.16282347-4.1763136 93.32454933-5.46133334a897.42556907 897.42556907 0 0 1 154.0417248 7.22823467 417.6313728 417.6313728 0 0 1 114.8486272 27.78854933 117.90054933 117.90054933 0 0 1 25.37913814 15.09898027 30.35858773 30.35858773 0 0 1 4.6581952 47.38509867z" fill="#8a8a8a" p-id="6808"></path></svg>