<?xml version="1.0" standalone="no"?><!DOCTYPE svg PUBLIC "-//W3C//DTD SVG 1.1//EN" "http://www.w3.org/Graphics/SVG/1.1/DTD/svg11.dtd"><svg t="1578143479784" class="icon" viewBox="0 0 1024 1024" version="1.1" xmlns="http://www.w3.org/2000/svg" p-id="2842" xmlns:xlink="http://www.w3.org/1999/xlink" width="16" height="16"><defs><style type="text/css"></style></defs><path d="M1013.88288 940.722176l-73.162752 73.162752c-13.447168 13.487104-35.28704 13.487104-48.776192 0L745.659392 867.56352c-13.488128-13.447168-13.488128-35.28704 0-48.77312l3.92704-3.92704-68.779008-68.816896c-1.754112-1.753088-2.7136-3.883008-3.966976-5.92896-71.32672 57.542656-161.944576 92.116992-260.747264 92.116992C186.289152 832.234496 0 645.953536 0 416.116736 0 186.324992 186.289152 0 416.093184 0 645.9392 0 832.228352 186.323968 832.228352 416.11776c0 98.799616-34.577408 189.413376-92.080128 260.777984 2.004992 1.252352 4.175872 2.172928 5.92896 3.926016l68.779008 68.774912 3.926016-3.966976c13.488128-13.446144 35.329024-13.446144 48.776192 0L1013.88288 891.951104c13.488128 13.48608 13.488128 35.325952-0.001024 48.771072M416.093184 160.308224c-141.315072 0-255.819776 114.542592-255.819776 255.809536 0 141.268992 114.50368 255.850496 255.819776 255.850496 141.314048 0 255.86176-114.582528 255.86176-255.85152 0-141.26592-114.547712-255.808512-255.86176-255.808512" p-id="2843" fill="#d81e06"></path></svg>