<?xml version="1.0" standalone="no"?><!DOCTYPE svg PUBLIC "-//W3C//DTD SVG 1.1//EN" "http://www.w3.org/Graphics/SVG/1.1/DTD/svg11.dtd"><svg class="icon" width="16px" height="16.00px" viewBox="0 0 1024 1024" version="1.1" xmlns="http://www.w3.org/2000/svg"><path fill="#bfbfbf" d="M302.08 862.208l171.52-73.216 38.4-16.384 38.4 16.384 171.52 73.216-5.12-199.68-1.024-39.424 23.552-30.72 110.08-144.384-177.152-56.32-34.304-10.752-20.48-30.72L512 189.44 406.528 349.696l-20.48 30.72-34.304 10.752-177.152 56.32 110.08 144.384 23.552 30.72-1.024 39.424-5.12 200.192M828.416 1024L512 889.344 195.584 1024l9.216-364.032L0 391.168l322.048-102.912L512 0l189.952 288.256L1024 391.168l-204.8 268.8 9.216 364.032z" /></svg>