<?xml version="1.0" standalone="no"?><!DOCTYPE svg PUBLIC "-//W3C//DTD SVG 1.1//EN" "http://www.w3.org/Graphics/SVG/1.1/DTD/svg11.dtd"><svg class="icon" width="16px" height="16.00px" viewBox="0 0 1024 1024" version="1.1" xmlns="http://www.w3.org/2000/svg"><path fill="#bfbfbf" d="M989.257143 891.611429H34.742857V271.177143h34.011429v586.24h886.491428V271.177143H989.257143z"  /><path fill="#bfbfbf" d="M55.222857 823.405714h405.76v34.011429H55.222857zM556.251429 823.405714h405.76v34.011429H556.251429z"  /><path fill="#bfbfbf" d="M143.725714 169.142857l-49.554285 25.234286V804.571429l49.554285-25.234286c95.817143-49.005714 205.714286-49.005714 301.531429 0l49.554286 25.234286V194.377143l-49.554286-25.234286c-95.817143-49.005714-205.714286-49.005714-301.531429 0zM578.742857 169.142857l-49.554286 25.234286V804.571429l49.554286-25.234286c95.817143-49.005714 205.714286-49.005714 301.531429 0l49.554285 25.234286V194.377143l-49.554285-25.234286c-95.817143-49.005714-205.714286-49.005714-301.531429 0z"  /></svg>