<?xml version="1.0" standalone="no"?><!DOCTYPE svg PUBLIC "-//W3C//DTD SVG 1.1//EN" "http://www.w3.org/Graphics/SVG/1.1/DTD/svg11.dtd"><svg class="icon" width="16px" height="16.00px" viewBox="0 0 1024 1024" version="1.1" xmlns="http://www.w3.org/2000/svg"><path fill="#bfbfbf" d="M838.859 902.146h-653.716c-60.085 0-108.953-48.867-108.953-108.953v-562.387c0-60.085 48.867-108.953 108.953-108.953h653.716c60.085 0 108.953 48.867 108.953 108.953v562.387c0 60.085-48.867 108.953-108.953 108.953zM893.334 230.806c0-30.041-24.434-54.476-54.476-54.476h-653.716c-30.041 0-54.476 24.434-54.476 54.476v521.131l217.905-199.879 110.555 112.158 270.779-275.585 163.428 167.033v-324.857zM294.095 448.711c-60.085 0-108.953-48.867-108.953-108.953s48.867-108.953 108.953-108.953 108.953 48.867 108.953 108.953-48.867 108.953-108.953 108.953z" /></svg>