<?xml version="1.0" standalone="no"?><!DOCTYPE svg PUBLIC "-//W3C//DTD SVG 1.1//EN" "http://www.w3.org/Graphics/SVG/1.1/DTD/svg11.dtd"><svg class="icon" width="16px" height="16.00px" viewBox="0 0 1024 1024" version="1.1" xmlns="http://www.w3.org/2000/svg"><path fill="#d81e06" d="M412.581045 842.932706a16.082824 16.082824 0 0 1-0.843294 1.385412L327.287868 984.244706c-4.397176 6.625882-15.540706 6.625882-22.226823 0l-73.306353-97.761882c-2.228706-2.228706-4.457412-4.457412-8.854588-4.457412l-119.988706-6.625883c-11.143529 0-15.600941-11.143529-11.14353-20.058353l88.907294-142.155294a18.853647 18.853647 0 0 1 1.204706-1.14447l-13.974588-7.890824A123.723294 123.723294 0 0 1 104.537751 597.654588V279.913412c0-43.550118 24.997647-85.232941 63.066353-106.315294L447.878927 15.661176a129.325176 129.325176 0 0 1 123.723294 0.240942l282.021647 159.86447a124.687059 124.687059 0 0 1 63.066353 108.604236v317.741176c0 43.610353-24.997647 85.232941-63.367529 106.556235l-8.914824 4.939294 87.280941 139.565177c4.457412 8.914824 0 19.998118-11.143529 19.998118l-119.988706 6.625882c-4.397176 0-6.625882 2.288941-8.854588 4.517647l-73.306353 97.761882c-6.686118 6.625882-17.829647 6.625882-22.287059 0L612.140574 842.691765l-38.671059 21.504a129.325176 129.325176 0 0 1-123.783529-0.240941l-37.044706-21.082353z m279.130353-480.798118L527.269045 599.943529a27.346824 27.346824 0 0 1-22.226824 11.14353 27.346824 27.346824 0 0 1-22.226823-11.14353L325.059162 362.134588c-8.854588-11.083294-4.397176-28.912941 6.686118-35.538823 11.143529-6.625882 28.912941-4.457412 35.538824 6.625882l135.529411 204.438588 142.21553-206.607059c8.914824-11.143529 24.455529-15.540706 35.538823-6.625882 17.829647 11.023059 19.998118 26.624 11.14353 37.707294zM542.809751 66.620235a70.836706 70.836706 0 0 0-66.620236 0l-279.973647 157.816471a65.475765 65.475765 0 0 0-33.310117 55.476706v317.741176c0 22.287059 13.312 44.453647 33.310117 55.536941L478.418221 813.176471c19.998118 11.143529 46.622118 11.143529 66.620235 0l279.973648-155.52753c19.998118-11.083294 33.310118-33.310118 33.310117-55.536941V284.370824a66.258824 66.258824 0 0 0-33.310117-57.765648L542.809751 66.620235z" /></svg>