<?xml version="1.0" standalone="no"?><!DOCTYPE svg PUBLIC "-//W3C//DTD SVG 1.1//EN" "http://www.w3.org/Graphics/SVG/1.1/DTD/svg11.dtd"><svg t="1578485752747" class="icon" viewBox="0 0 1024 1024" version="1.1" xmlns="http://www.w3.org/2000/svg" p-id="7641" xmlns:xlink="http://www.w3.org/1999/xlink" width="16" height="16"><defs><style type="text/css"></style></defs><path d="M848.9 6.3H174.5C81.4 6.3 6 81.7 6 174.8v674.3c0 93.1 75.4 168.6 168.6 168.6h674.3c93.1 0 168.6-75.4 168.6-168.6V175c0-93.1-75.5-168.7-168.6-168.7z m23.7 247.6v44h-42.7l-536.6 552h-159V297.3l-39.8-0.6v-42.8h158.9v401.2l397.4-401.2h221.8zM627.8 719.6c13.2 34.1 32.1 63.5 53.5 87.7l-9.4 29.3c-20.7-28.6-38.5-60.9-51.1-94.8v106.9h-14.6V742.1c-12.5 34.1-28 60.5-51.2 94.6l-9.4-28.3c23.7-28 41.5-55.7 54-88.5h-46.8V691h53.5v-43.7h-44.5v-28.9h44.5v-41l14.6 1.2v39.8H665v28.9h-44.2V691h53.3v28.6h-46.3z m118 60.5c-3.1 5.4-17.8 34.3-27.3 54.5l-8.9-19.5c3.5-6.1 3.2-11.7 3.2-22.2v-89.5H696v-30.7h31.4v106.9l14-27 4.4 27.5z m-19.9-122.6c-4.7-15.3-16.2-44-22.6-57.8l10-19.3c6.8 12.1 17.3 37.3 23.2 53.3l-10.6 23.8zM816.6 853c-18-36.4-30.7-76.8-38-130.6-5.6 45.2-16.7 85.8-39.6 132.5l-11.9-24.3c30-50.6 43.3-104.2 43-215.2v-35.8l14.2 1.2v42.1l-0.2 14.7c3.1 85.8 17.8 143.9 43.2 190.5L816.6 853z m154.1-45.6v30.4h-96.1v-24.7c-4.6 8.4-9.6 17.8-13.3 24.9l-8.8-22c2.8-5.7 2.8-11.7 2.8-20.1v-94.6h-14.1V671h28.4v112.6l12-21.1 3.7 31.4-7.4 13.6h12.3v-143l14.8 1.2v141.8h17V624.7h-37.8v-29.8h81.4v29.8h-28.8v71h27.3v31.9h-27.3v79.8h34zM865.9 651.8c-4-13-13.3-39.8-18.9-52.7l11.5-17.8c5.7 11.5 14.4 34.3 18.9 48.2l-11.5 22.3z" p-id="7642" fill="#bfbfbf"></path></svg>