<?xml version="1.0" standalone="no"?><!DOCTYPE svg PUBLIC "-//W3C//DTD SVG 1.1//EN" "http://www.w3.org/Graphics/SVG/1.1/DTD/svg11.dtd"><svg class="icon" width="16px" height="16.00px" viewBox="0 0 1024 1024" version="1.1" xmlns="http://www.w3.org/2000/svg"><path fill="#bfbfbf" d="M511.646501 852.318427C513.3925 850.741015 516.884503 847.586202 516.884503 847.586202 738.668074 646.043071 808.239081 574.380446 853.64177 489.88787 874.584837 450.913673 884.363636 415.390578 884.363636 379.345455 884.363636 287.398144 813.401856 216.436364 721.454545 216.436364 669.217853 216.436364 616.89613 241.028421 582.874945 280.979901L512 364.209197 441.125053 280.979901C407.103871 241.028421 354.782148 216.436364 302.545455 216.436364 210.598144 216.436364 139.636364 287.398144 139.636364 379.345455 139.636364 415.547805 149.501383 451.227391 170.635978 490.39044 216.182926 574.790321 286.220326 646.813794 507.042118 847.054141 507.042118 847.054141 490.96233 871.005342 511.646501 852.318427ZM512 220.625455 578.083025 164.351628C620.609936 138.33686 670.384463 123.345455 721.454545 123.345455 864.814545 123.345455 977.454545 235.985455 977.454545 379.345455 977.454545 555.287273 819.2 698.647273 579.490909 916.48L512 977.454545 444.509091 916.014545C204.8 698.647273 46.545455 555.287273 46.545455 379.345455 46.545455 235.985455 159.185455 123.345455 302.545455 123.345455 353.615536 123.345455 403.390064 138.33686 445.916975 164.351628L512 220.625455Z" /></svg>