<?xml version="1.0" standalone="no"?><!DOCTYPE svg PUBLIC "-//W3C//DTD SVG 1.1//EN" "http://www.w3.org/Graphics/SVG/1.1/DTD/svg11.dtd"><svg t="1578041426621" class="icon" viewBox="0 0 1027 1024" version="1.1" xmlns="http://www.w3.org/2000/svg" p-id="6587" xmlns:xlink="http://www.w3.org/1999/xlink" width="16.046875" height="16"><defs><style type="text/css"></style></defs><path d="M187.869 821.672l-44.516 77.153 0.12 0.18a37.732 37.732 0 0 0-9.423 24.728c0.004 20.929 17.282 38.208 38.521 38.208 7.379 0 24.298-1.68 24.778-1.56h321.993l-0.24-0.36c246.444-2.022 445.447-202.272 445.447-449.002 0-247.985-201.031-449.017-449.017-449.017-1.255 0-2.51 0.006-3.762 0.016-247.884-0.001-448.99 201.104-448.99 449.181 0 120.59 47.816 229.78 125.09 310.474z m301.654-152.927H287.34v-89.992h202.183v89.992zM287.341 338.473h449.543v89.993H287.341v-89.993z" p-id="6588" fill="#bfbfbf"></path></svg>