<?xml version="1.0" standalone="no"?><!DOCTYPE svg PUBLIC "-//W3C//DTD SVG 1.1//EN" "http://www.w3.org/Graphics/SVG/1.1/DTD/svg11.dtd"><svg class="icon" width="16px" height="16.00px" viewBox="0 0 1024 1024" version="1.1" xmlns="http://www.w3.org/2000/svg"><path fill="#bfbfbf" d="M569.1 130.9c-210 0-380.3 170.6-380.1 380.6 0 93.6 33.8 179.5 90 245.8C173 740.7 84.9 792.2 80.2 795c-9.6 5.7-12.8 18.2-7.1 27.8 5.7 9.6 18.2 12.8 27.8 7.1 1.3-0.8 129.9-75.2 251.1-4.3 5.9 3.4 11.5 6.5 17.3 9.4 0.7 0.4 1.5 0.8 2.2 1.1 57.7 35.3 125.6 55.6 198.1 55.5 210 0 379.9-170.6 379.8-380.6S779.1 130.8 569.1 130.9zM358.9 614c-56.7 0-102.7-45.8-102.7-102.5S302 408.8 358.8 408.8c56.7 0 102.6 45.8 102.7 102.6 0 56.6-45.9 102.6-102.6 102.6z m210.2-415.8c56.7 0 102.6 46.2 102.7 102.9 0 56.7-45.8 102.6-102.5 102.7-56.7 0-103-45.8-103-102.5-0.1-56.8 46.1-103.1 102.8-103.1z m60.7 317c0 31.2-25.1 56.8-56.4 56.8-31.2 0-56.4-25.5-56.4-56.7 0-31.2 25.1-56.4 56.4-56.4 31.2 0 56.4 25.1 56.4 56.3z m-60.3 308.7c-11 0-21.6-1.7-31.6-4.9 1.3-1.4 2.4-2.8 3.8-4.1-3.1 0.7-6.5 1.2-9.8 1.9-38.2-14.9-65.4-51.9-65.5-95.4 0-56.7 46.2-102.6 102.9-102.7 56.7 0 102.7 45.8 102.7 102.5 0.1 56.7-45.8 102.6-102.5 102.7z m210-210.3c-56.7 0-102.6-45.8-102.7-102.5 0-56.7 45.8-102.7 102.5-102.7S881.9 454.2 882 511c0.1 56.6-45.8 102.6-102.5 102.6z" /></svg>