<?xml version="1.0" standalone="no"?><!DOCTYPE svg PUBLIC "-//W3C//DTD SVG 1.1//EN" "http://www.w3.org/Graphics/SVG/1.1/DTD/svg11.dtd"><svg t="1578488986657" class="icon" viewBox="0 0 1024 1024" version="1.1" xmlns="http://www.w3.org/2000/svg" p-id="2449" xmlns:xlink="http://www.w3.org/1999/xlink" width="16" height="16"><defs><style type="text/css"></style></defs><path d="M188.060498 260.657707l1.478269-2.011445 2.586525 1.900886-1.478269 2.011445zM197.83865 267.87519l1.478269-2.011444 2.585634 1.900886-1.477378 2.011445zM207.597188 274.96785l1.478269-2.011444 2.586525 1.900886-1.478269 2.011445zM217.303121 282.13273l1.478269-2.012336 2.586525 1.900886-1.478269 2.012336zM227.081273 289.350213l1.478269-2.012336 2.585633 1.900887-1.477377 2.012336zM236.787206 296.514201l1.478269-2.011444 2.585633 1.900886-1.478269 2.011445zM246.545743 303.606861l1.478269-2.011444 2.585634 1.900886-1.477378 2.012336zM256.323004 310.824345l1.479161-2.011445 2.585633 1.900887-1.478269 2.011444zM266.029828 317.989224l1.47827-2.011444 2.585633 1.900886-1.478269 2.011445zM275.788366 325.081884l1.478269-2.011444 2.585633 1.900886-1.477377 2.011445zM285.565626 332.299368l1.479161-2.011445 2.585634 1.900887-1.478269 2.011444zM295.272451 339.464247l1.478269-2.011444 2.585634 1.900886-1.47827 2.011445zM304.977492 346.629127l1.479161-2.012336 2.585633 1.900886-1.478269 2.012336zM314.808249 353.774391l1.478269-2.011445 2.586525 1.900887-1.478269 2.011444zM324.514182 360.93927l1.478269-2.012336 2.586525 1.900887-1.478269 2.012336z" fill="#1296db" p-id="2450"></path><path d="M189.31141 631.047021l-1.217031-2.179956 2.803183-1.563863 1.217031 2.179957zM199.774309 625.150886l-1.216139-2.179957 2.803183-1.563862 1.216139 2.179956zM210.358466 619.28863l-1.216139-2.179956 2.803183-1.563863 1.216139 2.179957zM220.899826 613.348806l-1.216139-2.179956 2.803183-1.563863 1.216139 2.179957zM231.483983 607.487443l-1.21614-2.179957 2.803184-1.563862 1.216139 2.179956zM242.069031 601.625188l-1.217031-2.179957 2.803183-1.563862 1.217031 2.179956zM252.609499 595.685364l-1.216139-2.179957 2.803183-1.563862 1.21614 2.179956zM263.194548 589.824l-1.217031-2.179956 2.803183-1.564754 1.217031 2.180848zM273.735016 583.884176l-1.216139-2.179957 2.803183-1.564754 1.216139 2.180848zM284.320064 578.022812l-1.21703-2.180848 2.803183-1.563862 1.217031 2.179956zM294.860533 572.082097l-1.216139-2.179957 2.803183-1.563862 1.216139 2.179956zM305.445581 566.220733l-1.217031-2.179956 2.803184-1.564754 1.21703 2.180848zM315.98605 560.280909l-1.21614-2.179956 2.803184-1.563863 1.216139 2.179957zM326.492637 554.462342l-1.216139-2.179956 2.803183-1.563863 1.21614 2.179957zM337.077686 548.600087l-1.217031-2.179956 2.803183-1.563863 1.217031 2.179957z" fill="#1296db" p-id="2451"></path><path d="M692.833207 334.284956l-1.21614-2.179956 2.803184-1.563863 1.216139 2.179957zM703.374567 328.346024l-1.216139-2.180849 2.803183-1.563862 1.216139 2.179956zM713.959615 322.483768l-1.217031-2.179956 2.803184-1.563863 1.216139 2.179957zM724.500084 316.543944l-1.21614-2.179956 2.803184-1.563863 1.216139 2.179957zM735.08424 310.682581l-1.216139-2.180848 2.803183-1.563863 1.21614 2.179957zM745.6256 304.742757l-1.216139-2.180848 2.803183-1.563863 1.21614 2.179957zM756.132188 298.92419l-1.216139-2.180848 2.803183-1.563863 1.216139 2.179957zM766.717236 293.061935l-1.217031-2.179957 2.803184-1.563862 1.216139 2.179956zM777.257705 287.122111l-1.216139-2.179957 2.803183-1.563862 1.216139 2.179956zM787.841862 281.260747l-1.21614-2.180848 2.803184-1.563862 1.216139 2.179956zM798.383222 275.320923l-1.21614-2.179957 2.803184-1.564754 1.216139 2.180849zM808.967378 269.458668l-1.216139-2.179957 2.803183-1.563862 1.21614 2.179956zM819.508738 263.518844l-1.216139-2.179957 2.802292-1.563862 1.217031 2.179956zM830.092895 257.65748l-1.216139-2.180848 2.803183-1.563862 1.216139 2.179956zM840.634255 251.717656l-1.216139-2.180848 2.803183-1.563862 1.216139 2.179956z" fill="#1296db" p-id="2452"></path><path d="M697.407995 525.882177l1.478269-2.012336 2.585633 1.900886-1.477377 2.011445zM707.113928 533.046165l1.478269-2.011445 2.585633 1.899995-1.477377 2.012336zM716.872465 540.138825l1.478269-2.011445 2.586525 1.900886-1.478269 2.011445zM726.650617 547.356308l1.478269-2.011444 2.585634 1.900886-1.478269 2.011445zM736.35655 554.520296l1.478269-2.011444 2.585634 1.900886-1.478269 2.011444zM746.115088 561.613848l1.478269-2.012336 2.585633 1.900886-1.477377 2.012336zM755.892348 568.83044l1.479161-2.011445 2.585633 1.900887-1.478269 2.012336zM765.599173 575.995319l1.478269-2.011444 2.585633 1.900886-1.478269 2.011444zM775.304214 583.160199l1.479161-2.011445 2.585633 1.900886-1.478269 2.011445zM785.062751 590.252859l1.479161-2.011445 2.585633 1.900886-1.477377 2.011445zM794.840904 597.470342l1.47916-2.011444 2.585634 1.900886-1.478269 2.011445zM804.546837 604.635222l1.47916-2.011445 2.585634 1.900886-1.478269 2.011445zM814.306266 611.727882l1.478269-2.011445 2.585633 1.900886-1.477377 2.011445zM824.083526 618.945365l1.478269-2.011444 2.586525 1.900886-1.478269 2.011445zM833.789459 626.110245l1.478269-2.012336 2.586525 1.900886-1.478269 2.011444z" fill="#1296db" p-id="2453"></path><path d="M508.506966 631.429517h2.496473v3.209752h-2.496473zM508.506966 643.555246h2.496473v3.209752h-2.496473zM508.506966 655.591815h2.496473v3.209752h-2.496473zM508.506966 667.717545h2.496473v3.209751h-2.496473zM508.506966 679.843274h2.496473v3.209752h-2.496473zM508.506966 691.879843h2.496473v3.209752h-2.496473zM508.506966 704.005572h2.496473v3.209752h-2.496473zM508.506966 716.042142h2.496473v3.209752h-2.496473zM508.506966 728.167871h2.496473v3.209752h-2.496473zM508.506966 740.2936h2.496473v3.209752h-2.496473zM508.506966 752.33017h2.496473v3.209752h-2.496473zM508.506966 764.455899h2.496473v3.209752h-2.496473zM508.506966 776.581628h2.496473v3.209752h-2.496473zM508.506966 788.618198h2.496473v3.209751h-2.496473zM508.506966 800.743927h2.496473v3.209752h-2.496473z" fill="#1296db" p-id="2454"></path><path d="M508.506966 65.532434h2.496473v3.209751h-2.496473zM508.506966 77.569003h2.496473v3.209752h-2.496473zM508.506966 89.694732h2.496473v3.209752h-2.496473zM508.506966 101.820461h2.496473v3.209752h-2.496473zM508.506966 113.857031h2.496473v3.209752h-2.496473zM508.506966 125.98276h2.496473v3.209752h-2.496473zM508.506966 138.108489h2.496473v3.209752h-2.496473zM508.506966 150.145059h2.496473v3.209752h-2.496473zM508.506966 162.270788h2.496473v3.209752h-2.496473zM508.506966 174.307357h2.496473v3.209752h-2.496473zM508.506966 186.433087h2.496473v3.209751h-2.496473zM508.506966 198.558816h2.496473v3.209752h-2.496473zM508.506966 210.595385h2.496473v3.209752h-2.496473zM508.506966 222.721114h2.496473v3.209752h-2.496473zM508.506966 234.846844h2.496473v3.209752h-2.496473z" fill="#1296db" p-id="2455"></path><path d="M513.054114 867.970396L142.951894 654.254419V226.911624L513.054114 13.195646l370.10222 213.715978v427.342795L513.054114 867.970396zM160.783848 643.911885l352.270266 203.373444 352.270266-203.373444V237.164998L513.054114 33.791554 160.783848 237.164998v406.746887z" fill="#1296db" p-id="2456"></path><path d="M500.839225 1024c1.694036 0 1.694036-2.674793 0-2.674793s-1.694036 2.674793 0 2.674793z" fill="#1296db" p-id="2457"></path><path d="M644.921419 608.604615H384.7532c-11.94741 0-21.665825-9.718415-21.665825-21.665825V424.311363c0-11.94741 9.718415-21.665825 21.665825-21.665825h43.33165v-54.209143c0-47.878798 38.873661-86.75246 86.75246-86.752459 47.878798 0 86.75246 38.784502 86.752459 86.752459v54.209143h43.33165c11.94741 0 21.665825 9.718415 21.665825 21.665825v162.627427c0 11.94741-9.718415 21.665825-21.665825 21.665825z m-65.086634-260.16822c0-35.931389-29.155246-65.086635-65.086635-65.086634s-65.086635 29.155246-65.086635 65.086634v54.209143h130.08411v-54.209143z m65.086634 97.540793c0-11.94741-9.718415-21.665825-21.665825-21.665825H406.419025c-11.94741 0-21.665825 9.718415-21.665825 21.665825V565.272965c0 11.94741 9.718415 21.665825 21.665825 21.665825h216.836569c11.94741 0 21.665825-9.718415 21.665825-21.665825V445.977188z m-119.295777 85.236743v44.936526h-21.665825v-44.936526c-18.634393-4.814628-32.543317-21.665825-32.543317-41.815934 0-23.983979 19.436831-43.33165 43.33165-43.33165 23.983979 0 43.33165 19.436831 43.33165 43.33165 0.08916 20.150109-13.730605 36.912146-32.454158 41.815934z m-10.788332-63.481759c-11.94741 0-21.665825 9.718415-21.665825 21.665825s9.718415 21.665825 21.665825 21.665825 21.665825-9.718415 21.665825-21.665825-9.718415-21.665825-21.665825-21.665825z m0 0" fill="#1296db" p-id="2458"></path></svg>