<?xml version="1.0" standalone="no"?><!DOCTYPE svg PUBLIC "-//W3C//DTD SVG 1.1//EN" "http://www.w3.org/Graphics/SVG/1.1/DTD/svg11.dtd"><svg t="1578217828358" class="icon" viewBox="0 0 1024 1024" version="1.1" xmlns="http://www.w3.org/2000/svg" p-id="6516" xmlns:xlink="http://www.w3.org/1999/xlink" width="16" height="16"><defs><style type="text/css"></style></defs><path d="M512 0C229.668571 0 0 229.668571 0 512s229.668571 512 512 512 512-229.668571 512-512-229.668571-512-512-512z m0 932.571429c-231.862857 0-420.571429-188.708571-420.571429-420.571429S280.137143 91.428571 512 91.428571 932.571429 280.137143 932.571429 512 743.862857 932.571429 512 932.571429z" fill="#d81e06" p-id="6517"></path><path d="M512 512m-210.285714 0a210.285714 210.285714 0 1 0 420.571428 0 210.285714 210.285714 0 1 0-420.571428 0Z" fill="#d81e06" p-id="6518"></path></svg>